<svg xmlns="http://www.w3.org/2000/svg" viewBox="0 0 512 512">
  <defs>
    <linearGradient id="g" x1="0%" y1="0%" x2="100%" y2="100%">
      <stop offset="0%" stop-color="#6ea8fe"/>
      <stop offset="100%" stop-color="#a78bfa"/>
    </linearGradient>
  </defs>
  <rect width="512" height="512" rx="96" fill="#0d1117"/>
  <path d="M120 320c0-22 14-40 34-46l24-66c8-22 28-36 52-36h52c24 0 44 14 52 36l24 66c20 6 34 24 34 46v60c0 14-12 26-26 26h-12c-14 0-26-12-26-26v-12H184v12c0 14-12 26-26 26h-12c-14 0-26-12-26-26v-60z" fill="url(#g)"/>
  <circle cx="186" cy="350" r="22" fill="#0d1117"/>
  <circle cx="326" cy="350" r="22" fill="#0d1117"/>
</svg>
